<svg width="184" height="40" fill="none" xmlns="http://www.w3.org/2000/svg"><path fill-rule="evenodd" clip-rule="evenodd" d="M125.464 15.308c-1.956-.203-3.643.38-5.075 2.07V7l-5.176.613V31.62h5.176v-1.422c.698.494 1.378 1.083 2.171 1.357 3.012 1.065 6.989.196 8.379-3.773.888-2.548.87-5.154.196-7.731-.739-2.85-2.671-4.428-5.671-4.743zm.775 10.39c-.226 1.584-1.508 2.41-3.023 2.298a3.913 3.913 0 01-1.038-.22c-1.222-.69-1.592-1.851-1.705-2.577-.084-1.125-.173-3.482.388-4.595.477-.857 1.3-1.315 2.397-1.35 1.556-.054 2.731.708 2.964 2.26.208 1.376.214 2.816.017 4.185zm17.562-10.093a10.417 10.417 0 00-5.408.006c-2.69.703-4.491 2.375-5.063 5.035-.316 1.452-.382 2.994-.298 4.487.19 3.404 2.331 5.832 5.653 6.588.048.012.095.018.143.03a47.415 47.415 0 00.411.077c.042.006.09.006.132.012h.006c.161.03.357.054.56.066.65.071 1.479.119 2.171.035h.119c3.429-.172 6.035-2.303 6.792-5.57.418-1.791.418-3.594.012-5.38-.65-2.832-2.379-4.636-5.23-5.386zm.215 9.838a5.83 5.83 0 01-.06.315c-.345 1.506-1.449 2.315-2.928 2.244-1.586-.072-2.683-.988-2.832-2.553a19.13 19.13 0 01-.024-3.452c.149-1.803 1.294-2.791 3.011-2.755 1.414.03 2.422.815 2.779 2.154.334 1.35.09 3.743.054 4.047zM66.13 15.516h-3.692V13.1c.268-2.285 4.109-1.85 4.109-1.85V7.32h-.006c-.131-.03-7.633-1.779-9.118 3.839v.006c-.006.012-.006.024-.012.035-.233.703-.22 3.922-.215 4.321H54v4.297h3.4v11.694h4.949V19.819h3.786l.43-4.297c-.006-.006-.436-.006-.436-.006zm11.807 2.059c-.06-.065-.12-.13-.173-.178a1.997 1.997 0 00-.149-.149c-1.163-1.167-1.605-1.458-2.523-1.72-3.512-1.018-6.93.792-8.014 4.273-.668 2.136-.674 4.332-.287 6.499.841 4.683 4.383 6.254 8.152 5.48 1.157-.237 2.022-.946 2.815-1.933 0 0 .071-.09.16-.256v2.059h4.825V15.534H77.92l.018 2.041zm-.424 8.106c-.16 1.493-1.383 2.38-2.838 2.327-1.485-.06-2.47-.84-2.785-2.238-.388-1.994.066-4.356.101-4.553.388-1.339 1.372-2 2.827-1.964 1.425.03 2.522.857 2.677 2.31.161 1.362.167 2.755.018 4.118zm20.001 4.809c-.226-.81-.483-1.602-.727-2.37l-.233-.856s-6.053 2.862-6.995-2.571c-.09-.893-.06-1.827.066-2.708.238-1.672 1.27-2.565 2.916-2.72a6.679 6.679 0 011.687.066c.752.125 1.48.345 2.308.541.287-.857.579-1.708.853-2.57.042-.137.078-.25.107-.352l.138-.511a.6.6 0 00-.227-.209c-.137-.119-.376-.208-.751-.345-.15-.053-.299-.101-.448-.149a5.659 5.659 0 00-.22-.065c-1.593-.446-3.22-.482-4.878-.31-3.495.363-5.868 2.393-6.524 5.743a12.872 12.872 0 00.065 5.315c.597 2.648 2.225 4.356 4.872 5.124 1.73.5 3.5.523 5.266.25.745-.113 1.807-.494 2.57-.762l.292-.101-.137-.44zm15.934-6.303c-.024-1.119-.006-2.232-.167-3.327-.441-3.005-2.302-4.91-5.307-5.403-1.145-.185-2.362-.167-3.524-.054-3.191.298-5.612 2.25-6.113 5.201a18.318 18.318 0 00-.095 5.476c.37 2.695 1.7 4.415 4.013 5.243.012 0 .018 0 .03.005 1.049.31 6.214 1.637 10.758-.607l-.185-.66h-.006c-.209-.875-.465-1.75-.704-2.619l-.024-.089s-.095.036-.262.09h-.012c-.197.053-.394.112-.59.172l-.108.036a18.91 18.91 0 01-2.707.553c-.871.09-1.753.09-2.642.018-1.443-.232-2.552-.994-2.498-2.797h9.523s.608-.006.638-.012v-.173l-.018-1.053zm-4.651-2.196h-5.594c.03-1.095.167-2.113 1.157-2.732 1.05-.654 2.212-.678 3.286-.095 1.097.595 1.181 1.672 1.151 2.827zM184 15.707h-5.486l-4.765 7.337V7.018l-5.176.613v24.013h5.176V24.3l4.765 7.356H184l-5.17-7.987 5.17-7.962zm-22.547-.107a10.484 10.484 0 00-5.409 0c-2.683.702-4.484 2.374-5.063 5.034-.316 1.452-.381 2.994-.298 4.487.191 3.404 2.332 5.832 5.653 6.588.048.012.096.018.143.03a7.572 7.572 0 00.412.072c.042.005.089.005.131.011h.006c.161.03.358.054.561.066.655.071 1.478.119 2.17.035h.119c3.429-.172 6.035-2.303 6.793-5.57.417-1.791.417-3.594.012-5.38-.656-2.815-2.386-4.624-5.23-5.374zm.208 9.843a4.99 4.99 0 01-.059.315c-.346 1.506-1.449 2.315-2.928 2.244-1.586-.078-2.678-.988-2.833-2.553a19.13 19.13 0 01-.024-3.452c.155-1.803 1.294-2.791 3.018-2.756 1.407.03 2.421.816 2.779 2.155.322 1.35.083 3.743.047 4.047z" fill="#3B5998"/><path d="M7.303 0A7.285 7.285 0 000 7.303v25.394A7.285 7.285 0 007.303 40H21.07V24.366h-4.138v-5.628h4.138V13.93c0-3.78 2.441-7.248 8.069-7.248 2.276 0 3.965.22 3.965.22l-.13 5.256s-1.718-.014-3.594-.014c-2.027 0-2.351.938-2.351 2.49v4.11h6.11l-.269 5.627h-5.841V40h5.675A7.283 7.283 0 0040 32.697V7.303A7.285 7.285 0 0032.697 0H7.303z" fill="#3B5998"/></svg>