<svg width="135" height="41" fill="none" xmlns="http://www.w3.org/2000/svg"><path d="M12.517 28.474l.13.372a5.321 5.321 0 01-.13-.372zm-6.024-2.635c.225-1.987 1.003-3.104 2.463-4.25 2.087-1.544 4.693-.668 4.693-.668v-5.194a10.9 10.9 0 011.896.117v6.684s-2.605-.876-4.693.67c-1.46 1.144-2.23 2.255-2.462 4.248-.007 1.083.184 2.497 1.07 3.718a7.88 7.88 0 01-.668-.407c-1.95-1.38-2.306-3.456-2.299-4.918zm19.81-19.714c-1.433-1.662-1.979-3.331-2.176-4.51h1.807s-.361 3.082 2.265 6.117l.034.042a10.567 10.567 0 01-1.93-1.649z" fill="#BEBEBE"/><path d="M35 10.83v6.545s-2.306-.096-4.011-.551c-2.38-.642-3.909-1.621-3.909-1.621s-1.057-.704-1.146-.752v13.526c0 .752-.198 2.635-.791 4.201-.778 2.049-1.978 3.4-2.197 3.67 0 0-1.46 1.82-4.038 3.048C16.588 40 14.55 39.972 13.942 40c0 0-3.527.145-6.692-2.028a13.032 13.032 0 01-1.91-1.62l.014.013c3.172 2.173 6.692 2.028 6.692 2.028.607-.028 2.647 0 4.966-1.104 2.572-1.228 4.038-3.049 4.038-3.049.218-.276 1.426-1.62 2.197-3.676.593-1.566.79-3.449.79-4.2v-13.52a75.45 75.45 0 011.147.752s1.528.979 3.909 1.62c1.705.456 4.01.552 4.01.552v-5.132c.792.187 1.46.235 1.897.194z" fill="#BEBEBE"/><path d="M33.104 10.636v5.132s-2.306-.096-4.011-.552c-2.381-.641-3.91-1.62-3.91-1.62s-1.056-.704-1.145-.752v13.52c0 .751-.198 2.634-.791 4.2-.778 2.055-1.979 3.4-2.197 3.676 0 0-1.46 1.821-4.038 3.05-2.32 1.103-4.36 1.075-4.966 1.103 0 0-3.52.145-6.692-2.028l-.014-.014a12.848 12.848 0 01-.941-1.083c-1.01-1.303-1.63-2.842-1.787-3.283v-.007c-.253-.766-.778-2.594-.71-4.373.13-3.132 1.174-5.056 1.447-5.54a12.98 12.98 0 012.81-3.469 11.703 11.703 0 013.342-2 11.254 11.254 0 014.141-.876v5.187s-2.606-.876-4.693.67c-1.46 1.144-2.23 2.255-2.463 4.248-.006 1.47.348 3.539 2.292 4.925.225.152.45.29.669.407.34.462.757.87 1.228 1.2 1.903 1.27 3.5 1.36 5.539.531 1.364-.544 2.38-1.786 2.865-3.166.3-.862.293-1.731.293-2.62V1.613h4.748c.198 1.18.736 2.856 2.176 4.511.573.628 1.22 1.18 1.93 1.649.212.227 1.276 1.352 2.647 2.048a10.96 10.96 0 002.23.814z" fill="#D2D2D2"/><path d="M9.501 16.603a11.796 11.796 0 00-3.342 2 12.987 12.987 0 00-2.81 3.477c-.273.483-1.324 2.407-1.447 5.539-.075 1.772.457 3.607.71 4.373v.007c.157.434.777 1.972 1.787 3.283.293.38.607.738.941 1.083a13.201 13.201 0 01-2.837-2.69C1.5 32.385.879 30.86.723 30.412l-.008-.007v-.007c-.252-.758-.777-2.593-.709-4.373.13-3.131 1.173-5.056 1.446-5.539a12.88 12.88 0 012.81-3.476 11.703 11.703 0 013.343-2 11.26 11.26 0 012.354-.697 11.583 11.583 0 013.683-.055v1.483c-.6.013-1.2.069-1.787.172-.805.131-1.596.373-2.354.69z" fill="#C1C1C1"/><path d="M24.127 1.614h-4.748v25.494c0 .897.007 1.759-.293 2.621-.478 1.38-1.501 2.621-2.859 3.173-2.04.828-3.636.738-5.539-.53a5.367 5.367 0 01-1.227-1.201c1.623.876 3.07.862 4.87.13 1.35-.558 2.38-1.8 2.858-3.179.3-.862.294-1.731.294-2.621V0h6.555s-.075.635.089 1.614zm8.977 7.601v1.421a10.243 10.243 0 01-2.224-.814c-1.371-.69-2.442-1.82-2.647-2.048.246.158.491.31.75.434 1.672.842 3.309 1.097 4.12 1.007zm72.352 14.096c0 .346.056.692.152 1.025.007.02.014.048.02.068a3.9 3.9 0 003.723 2.707V31c-1.92 0-3.296.068-5.387-1.153-2.388-1.391-3.729-3.936-3.729-6.582 0-2.728 1.499-5.456 4.045-6.772 1.844-.957 3.247-.964 5.071-.964v3.888c-2.154 0-3.901 1.724-3.901 3.848l.006.047z" fill="#C1C1C1"/><path d="M113.286 23.311c0 .346-.048.692-.151 1.025l-.021.068a3.898 3.898 0 01-3.722 2.707V31c1.919 0 3.295.068 5.387-1.153 2.387-1.391 3.729-3.936 3.729-6.582 0-2.728-1.5-5.456-4.046-6.772-1.843-.957-3.247-.964-5.07-.964v3.888c2.153 0 3.901 1.724 3.901 3.848l-.007.047z" fill="#BEBEBE"/><path d="M49 12h14.365l-1.328 3.922H58.28v14.996h-4.63V15.922H49V12zm38.073 0v3.922h4.651v14.996h4.63V15.922h3.757L101.439 12H87.073zm-20.592 4.465c1.246 0 2.243-.99 2.243-2.219a2.225 2.225 0 00-2.243-2.219c-1.238 0-2.236.99-2.236 2.219a2.232 2.232 0 002.236 2.219zm-2.236 14.453h4.541V18.032h-4.54v12.886zm20.847-14.562h-5.305l-4.568 4.54v-8.882h-4.506l-.014 18.904h4.554v-4.926l1.418-1.27 4.41 6.196h4.87l-6.405-9.066 5.546-5.496zm43.509 5.496l5.545-5.496h-5.304l-4.576 4.54v-8.882h-4.499l-.014 18.904h4.548v-4.926l1.424-1.27 4.417 6.196h4.857l-6.398-9.066zm-11.662 1.412c0 4.275-3.543 7.735-7.905 7.735-4.369 0-7.905-3.46-7.905-7.735s3.536-7.736 7.905-7.736c4.362 0 7.912 3.461 7.905 7.736zm-4.025 0c0-2.124-1.74-3.848-3.88-3.848-2.146 0-3.88 1.724-3.88 3.848 0 2.124 1.734 3.847 3.88 3.847 2.14 0 3.88-1.723 3.88-3.847z" fill="#D2D2D2"/></svg>